<svg width="23" height="17" viewBox="0 0 23 17" fill="none" xmlns="http://www.w3.org/2000/svg">
<path d="M13.6579 2.29112C13.1397 1.76699 13.1397 0.917218 13.6579 0.393094C14.1761 -0.131031 15.0162 -0.131031 15.5344 0.393094L22.6114 7.55099C22.8705 7.81305 23 8.15652 23 8.5C23 8.68198 22.9642 8.85549 22.8993 9.01374C22.8346 9.17203 22.7386 9.32033 22.6114 9.44901L15.5344 16.6069C15.0162 17.131 14.1761 17.131 13.6579 16.6069C13.1397 16.0828 13.1397 15.233 13.6579 14.7089L18.4696 9.8421H1.32692C0.594086 9.8421 0 9.24122 0 8.5C0 7.75877 0.594086 7.15789 1.32692 7.15789H18.4696L13.6579 2.29112Z" fill="white"/>
</svg>
