<svg width="19" height="15" viewBox="0 0 19 15" fill="none" xmlns="http://www.w3.org/2000/svg">
<path d="M4.45355 0.204366C7.58819 -0.068122 10.7406 -0.0681222 13.8752 0.204366L15.3854 0.335648C16.3908 0.423043 17.2519 1.02271 17.698 1.88049C17.7551 1.99023 17.7123 2.12309 17.6071 2.18819L11.3412 6.06712C9.99732 6.89904 8.3028 6.91649 6.94209 6.11243L0.634259 2.38508C0.532348 2.32486 0.485571 2.2009 0.531498 2.0918C0.939655 1.12223 1.85729 0.430055 2.94332 0.335648L4.45355 0.204366Z" fill="#3A260D"/>
<path d="M0.526365 4.06363C0.370402 3.97147 0.171398 4.07065 0.153218 4.25089C-0.100517 6.76653 -0.039106 9.30597 0.337451 11.8101C0.535965 13.1302 1.61337 14.1422 2.94332 14.2578L4.45355 14.3891C7.58819 14.6616 10.7406 14.6616 13.8752 14.3891L15.3854 14.2578C16.7154 14.1422 17.7928 13.1302 17.9913 11.8101C18.3788 9.233 18.4326 6.61849 18.1525 4.03103C18.1329 3.84951 17.9305 3.75216 17.7753 3.84826L12.1307 7.34252C10.3125 8.46805 8.01996 8.49167 6.17899 7.40382L0.526365 4.06363Z" fill="#3A260D"/>
</svg>
