<svg width="22" height="22" viewBox="0 0 22 22" fill="none" xmlns="http://www.w3.org/2000/svg">
<path d="M1.11295 8.76924C3.67323 14.3488 8.22896 18.7849 13.893 21.1898L14.8009 21.5945C16.8781 22.5205 19.3199 21.817 20.5869 19.9275L21.7734 18.158C22.1591 17.5827 22.0417 16.8078 21.5028 16.3728L17.479 13.1247C16.888 12.6476 16.0189 12.7587 15.5668 13.3692L14.322 15.0499C11.1279 13.4734 8.53469 10.8786 6.9591 7.68263L8.63877 6.43713C9.24887 5.98474 9.35992 5.11515 8.88312 4.52378L5.63685 0.497495C5.20219 -0.0416013 4.42798 -0.159194 3.85302 0.226558L2.07235 1.42123C0.172119 2.69612 -0.527112 5.1596 0.419745 7.24356L1.11191 8.76697L1.11295 8.76924Z" fill="#FFD364"/>
</svg>
