<svg width="18" height="14" viewBox="0 0 18 14" fill="none" xmlns="http://www.w3.org/2000/svg">
<path d="M16.6513 6.34957C16.8431 6.22704 16.9855 6.0561 17.0583 5.86073C17.1311 5.66536 17.1308 5.45535 17.0574 5.26014C16.9839 5.06494 16.8411 4.89433 16.6488 4.77225C16.4565 4.65016 16.2245 4.58271 15.9853 4.57936L11.339 4.42889C11.3161 4.42754 11.2942 4.42056 11.2759 4.40878C11.2576 4.397 11.2436 4.38093 11.2357 4.36251L9.63016 0.645085C9.54949 0.455956 9.40297 0.292645 9.21044 0.177263C9.01791 0.0618803 8.78867 0 8.55376 0C8.31884 0 8.0896 0.0618803 7.89707 0.177263C7.70455 0.292645 7.55803 0.455956 7.47736 0.645085L5.87696 4.37579C5.86905 4.39421 5.85509 4.41028 5.83677 4.42206C5.81845 4.43383 5.79655 4.44082 5.77371 4.44217L1.12738 4.59264C0.888147 4.59599 0.656137 4.66343 0.463879 4.78552C0.271622 4.90761 0.128759 5.07822 0.0553208 5.27342C-0.0181171 5.46862 -0.0184466 5.67863 0.0543785 5.874C0.127204 6.06938 0.269531 6.24031 0.461405 6.36284L4.10619 8.819C4.12443 8.8313 4.13806 8.84792 4.14541 8.8668C4.15275 8.88568 4.15347 8.90598 4.14749 8.92521L2.89298 12.7356C2.82797 12.9296 2.83427 13.1361 2.91102 13.327C2.98777 13.5178 3.13124 13.6838 3.32191 13.8022C3.51259 13.9207 3.74122 13.986 3.97669 13.9891C4.21216 13.9923 4.44305 13.9332 4.63794 13.8198L8.48923 11.6071C8.5082 11.5958 8.5307 11.5898 8.55376 11.5898C8.57681 11.5898 8.59932 11.5958 8.61829 11.6071L12.4696 13.8198C12.6618 13.937 12.8919 14 13.1278 14C13.3637 14 13.5938 13.937 13.786 13.8198C13.9768 13.7025 14.1204 13.5373 14.1971 13.3471C14.2738 13.1569 14.2799 12.951 14.2145 12.7577L12.9497 8.93406C12.943 8.91487 12.9434 8.89437 12.9508 8.87536C12.9581 8.85635 12.9722 8.83976 12.991 8.82785L16.6513 6.34957Z" fill="#FFD364"/>
</svg>
