<svg width="96" height="90" viewBox="0 0 96 90" fill="none" xmlns="http://www.w3.org/2000/svg">
<path fill-rule="evenodd" clip-rule="evenodd" d="M40.2655 4.44246C43.7117 -1.48083 52.2883 -1.48081 55.7345 4.44247L66.2883 22.5821C67.2611 24.2542 68.9425 25.3952 70.8591 25.6839L88.3842 28.3238C96.0236 29.4746 98.7032 39.0942 92.7538 44.0101L79.9846 54.5611C78.1924 56.0421 77.3497 58.378 77.785 60.6583L81.3619 79.3923C82.763 86.7308 75.0387 92.4325 68.4111 88.9521L50.9759 79.7961C49.1132 78.8179 46.8868 78.8179 45.0241 79.7961L27.5889 88.9521C20.9613 92.4325 13.237 86.7308 14.6381 79.3923L18.215 60.6583C18.6503 58.378 17.8076 56.0421 16.0154 54.5611L3.24619 44.0101C-2.7032 39.0942 -0.0235412 29.4746 7.61575 28.3238L25.1409 25.6839C27.0575 25.3952 28.7389 24.2542 29.7117 22.5821L40.2655 4.44246ZM49.1049 8.27913C48.6126 7.43294 47.3874 7.43295 46.8951 8.27913L36.3413 26.4188C34.2011 30.0972 30.502 32.6075 26.2856 33.2426L8.76046 35.8826C7.66912 36.047 7.28632 37.4212 8.13623 38.1235L20.9054 48.6745C24.8484 51.9325 26.7024 57.0717 25.7445 62.0883L22.1677 80.8223C21.9675 81.8706 23.071 82.6852 24.0178 82.1879L41.453 73.032C45.551 70.88 50.449 70.88 54.547 73.032L71.9822 82.1879C72.929 82.6852 74.0325 81.8706 73.8323 80.8223L70.2555 62.0883C69.2976 57.0717 71.1516 51.9325 75.0946 48.6745L87.8638 38.1235C88.7137 37.4212 88.3309 36.047 87.2395 35.8826L69.7143 33.2426C65.498 32.6075 61.7989 30.0972 59.6587 26.4188L49.1049 8.27913Z" fill="white"/>
</svg>
